<?xml version="1.0" encoding="UTF-8"?>
<svg version="1.1" xmlns="http://www.w3.org/2000/svg" width="250" height="250">
<path d="M0 0 C0.79870614 -0.00297112 1.59741228 -0.00594224 2.42032164 -0.0090034 C5.10563897 -0.01769823 7.79091176 -0.01919931 10.47624207 -0.02069092 C12.39796036 -0.02531853 14.31967774 -0.03034311 16.24139404 -0.03573608 C21.46872493 -0.04886737 26.69604296 -0.05530643 31.92338777 -0.05974674 C35.18804933 -0.06267622 38.45270738 -0.06678078 41.71736717 -0.07125092 C51.92836072 -0.0849276 62.13934622 -0.09459349 72.35034829 -0.09845281 C84.14376445 -0.1029345 95.93706476 -0.12048686 107.73044568 -0.1494534 C116.84220423 -0.17105781 125.95393016 -0.18115642 135.06571406 -0.18249393 C140.50972391 -0.18354282 145.95362488 -0.18946859 151.3976078 -0.20731354 C156.51854465 -0.22377279 161.63929053 -0.22596013 166.76024437 -0.21717453 C168.63958624 -0.21640301 170.51893829 -0.22076194 172.39825439 -0.23063278 C174.96454289 -0.24332114 177.53015186 -0.23749255 180.09643555 -0.22705078 C180.839538 -0.23510719 181.58264046 -0.24316359 182.34826118 -0.25146413 C187.7340679 -0.20023796 191.8578703 0.96885993 195.88322449 4.64044189 C199.92275045 9.82832809 200.3865116 13.51866047 200.37913513 19.90174866 C200.38210625 20.7004548 200.38507738 21.49916094 200.38813853 22.3220703 C200.39683337 25.00738763 200.39833444 27.69266042 200.39982605 30.37799072 C200.40445366 32.29970902 200.40947824 34.2214264 200.41487122 36.1431427 C200.4280025 41.37047358 200.43444157 46.59779162 200.43888187 51.82513642 C200.44181135 55.08979799 200.44591591 58.35445603 200.45038605 61.61911583 C200.46406273 71.83010937 200.47372862 82.04109488 200.47758794 92.25209695 C200.48206963 104.04551311 200.49962199 115.83881342 200.52858853 127.63219434 C200.55019295 136.74395289 200.56029155 145.85567882 200.56162906 154.96746272 C200.56267795 160.41147257 200.56860372 165.85537354 200.58644867 171.29935646 C200.60290792 176.42029331 200.60509526 181.54103918 200.59630966 186.66199303 C200.59553814 188.5413349 200.59989707 190.42068694 200.60976791 192.30000305 C200.62245627 194.86629155 200.61662768 197.43190052 200.60618591 199.9981842 C200.61827052 201.11283789 200.61827052 201.11283789 200.63059926 202.25000983 C200.57937309 207.63581656 199.4102752 211.75961896 195.73869324 215.78497314 C190.55080704 219.82449911 186.86047467 220.28826025 180.47738647 220.28088379 C179.27932726 220.28534047 179.27932726 220.28534047 178.05706483 220.28988719 C175.3717475 220.29858202 172.68647471 220.3000831 170.00114441 220.30157471 C168.07942611 220.30620232 166.15770873 220.3112269 164.23599243 220.31661987 C159.00866155 220.32975116 153.78134351 220.33619022 148.55399871 220.34063053 C145.28933714 220.34356001 142.0246791 220.34766457 138.7600193 220.3521347 C128.54902576 220.36581139 118.33804025 220.37547728 108.12703818 220.3793366 C96.33362203 220.38381828 84.54032172 220.40137065 72.74694079 220.43033719 C63.63518224 220.4519416 54.52345631 220.46204021 45.41167241 220.46337771 C39.96766257 220.46442661 34.52376159 220.47035238 29.07977867 220.48819733 C23.95884183 220.50465658 18.83809595 220.50684392 13.71714211 220.49805832 C11.83780023 220.4972868 9.95844819 220.50164573 8.07913208 220.51151657 C5.51284358 220.52420493 2.94723461 220.51837634 0.38095093 220.50793457 C-0.36215153 220.51599097 -1.10525399 220.52404738 -1.8708747 220.53234792 C-7.25668143 220.48112175 -11.38048383 219.31202386 -15.40583801 215.64044189 C-19.44536398 210.4525557 -19.90912512 206.76222332 -19.90174866 200.37913513 C-19.90471978 199.58042899 -19.9076909 198.78172285 -19.91075206 197.95881349 C-19.91944689 195.27349616 -19.92094797 192.58822337 -19.92243958 189.90289307 C-19.92706718 187.98117477 -19.93209177 186.05945739 -19.93748474 184.13774109 C-19.95061603 178.91041021 -19.95705509 173.68309217 -19.9614954 168.45574737 C-19.96442488 165.1910858 -19.96852944 161.92642776 -19.97299957 158.66176796 C-19.98667626 148.45077442 -19.99634215 138.23978891 -20.00020146 128.02878684 C-20.00468315 116.23537068 -20.02223551 104.44207037 -20.05120206 92.64868945 C-20.07280647 83.5369309 -20.08290508 74.42520497 -20.08424258 65.31342107 C-20.08529147 59.86941122 -20.09121725 54.42551025 -20.10906219 48.98152733 C-20.12552145 43.86059048 -20.12770879 38.7398446 -20.11892319 33.61889076 C-20.11815167 31.73954889 -20.12251059 29.86019684 -20.13238144 27.98088074 C-20.1450698 25.41459224 -20.13924121 22.84898327 -20.12879944 20.28269958 C-20.13685584 19.53959713 -20.14491225 18.79649467 -20.15321279 18.03087395 C-20.10198662 12.64506723 -18.93288873 8.52126483 -15.26130676 4.49591064 C-10.07342057 0.45638468 -6.38308819 -0.00737646 0 0 Z " fill="#F9FAFA" transform="translate(34.76130676269531,14.85955810546875)"/>
<path d="M0 0 C0.79870614 -0.00297112 1.59741228 -0.00594224 2.42032164 -0.0090034 C5.10563897 -0.01769823 7.79091176 -0.01919931 10.47624207 -0.02069092 C12.39796036 -0.02531853 14.31967774 -0.03034311 16.24139404 -0.03573608 C21.46872493 -0.04886737 26.69604296 -0.05530643 31.92338777 -0.05974674 C35.18804933 -0.06267622 38.45270738 -0.06678078 41.71736717 -0.07125092 C51.92836072 -0.0849276 62.13934622 -0.09459349 72.35034829 -0.09845281 C84.14376445 -0.1029345 95.93706476 -0.12048686 107.73044568 -0.1494534 C116.84220423 -0.17105781 125.95393016 -0.18115642 135.06571406 -0.18249393 C140.50972391 -0.18354282 145.95362488 -0.18946859 151.3976078 -0.20731354 C156.51854465 -0.22377279 161.63929053 -0.22596013 166.76024437 -0.21717453 C168.63958624 -0.21640301 170.51893829 -0.22076194 172.39825439 -0.23063278 C174.96454289 -0.24332114 177.53015186 -0.23749255 180.09643555 -0.22705078 C180.839538 -0.23510719 181.58264046 -0.24316359 182.34826118 -0.25146413 C187.7340679 -0.20023796 191.8578703 0.96885993 195.88322449 4.64044189 C199.92275045 9.82832809 200.3865116 13.51866047 200.37913513 19.90174866 C200.38210625 20.7004548 200.38507738 21.49916094 200.38813853 22.3220703 C200.39683337 25.00738763 200.39833444 27.69266042 200.39982605 30.37799072 C200.40445366 32.29970902 200.40947824 34.2214264 200.41487122 36.1431427 C200.4280025 41.37047358 200.43444157 46.59779162 200.43888187 51.82513642 C200.44181135 55.08979799 200.44591591 58.35445603 200.45038605 61.61911583 C200.46406273 71.83010937 200.47372862 82.04109488 200.47758794 92.25209695 C200.48206963 104.04551311 200.49962199 115.83881342 200.52858853 127.63219434 C200.55019295 136.74395289 200.56029155 145.85567882 200.56162906 154.96746272 C200.56267795 160.41147257 200.56860372 165.85537354 200.58644867 171.29935646 C200.60290792 176.42029331 200.60509526 181.54103918 200.59630966 186.66199303 C200.59553814 188.5413349 200.59989707 190.42068694 200.60976791 192.30000305 C200.62245627 194.86629155 200.61662768 197.43190052 200.60618591 199.9981842 C200.61827052 201.11283789 200.61827052 201.11283789 200.63059926 202.25000983 C200.57937309 207.63581656 199.4102752 211.75961896 195.73869324 215.78497314 C190.55080704 219.82449911 186.86047467 220.28826025 180.47738647 220.28088379 C179.27932726 220.28534047 179.27932726 220.28534047 178.05706483 220.28988719 C175.3717475 220.29858202 172.68647471 220.3000831 170.00114441 220.30157471 C168.07942611 220.30620232 166.15770873 220.3112269 164.23599243 220.31661987 C159.00866155 220.32975116 153.78134351 220.33619022 148.55399871 220.34063053 C145.28933714 220.34356001 142.0246791 220.34766457 138.7600193 220.3521347 C128.54902576 220.36581139 118.33804025 220.37547728 108.12703818 220.3793366 C96.33362203 220.38381828 84.54032172 220.40137065 72.74694079 220.43033719 C63.63518224 220.4519416 54.52345631 220.46204021 45.41167241 220.46337771 C39.96766257 220.46442661 34.52376159 220.47035238 29.07977867 220.48819733 C23.95884183 220.50465658 18.83809595 220.50684392 13.71714211 220.49805832 C11.83780023 220.4972868 9.95844819 220.50164573 8.07913208 220.51151657 C5.51284358 220.52420493 2.94723461 220.51837634 0.38095093 220.50793457 C-0.36215153 220.51599097 -1.10525399 220.52404738 -1.8708747 220.53234792 C-7.25668143 220.48112175 -11.38048383 219.31202386 -15.40583801 215.64044189 C-19.44536398 210.4525557 -19.90912512 206.76222332 -19.90174866 200.37913513 C-19.90471978 199.58042899 -19.9076909 198.78172285 -19.91075206 197.95881349 C-19.91944689 195.27349616 -19.92094797 192.58822337 -19.92243958 189.90289307 C-19.92706718 187.98117477 -19.93209177 186.05945739 -19.93748474 184.13774109 C-19.95061603 178.91041021 -19.95705509 173.68309217 -19.9614954 168.45574737 C-19.96442488 165.1910858 -19.96852944 161.92642776 -19.97299957 158.66176796 C-19.98667626 148.45077442 -19.99634215 138.23978891 -20.00020146 128.02878684 C-20.00468315 116.23537068 -20.02223551 104.44207037 -20.05120206 92.64868945 C-20.07280647 83.5369309 -20.08290508 74.42520497 -20.08424258 65.31342107 C-20.08529147 59.86941122 -20.09121725 54.42551025 -20.10906219 48.98152733 C-20.12552145 43.86059048 -20.12770879 38.7398446 -20.11892319 33.61889076 C-20.11815167 31.73954889 -20.12251059 29.86019684 -20.13238144 27.98088074 C-20.1450698 25.41459224 -20.13924121 22.84898327 -20.12879944 20.28269958 C-20.13685584 19.53959713 -20.14491225 18.79649467 -20.15321279 18.03087395 C-20.10198662 12.64506723 -18.93288873 8.52126483 -15.26130676 4.49591064 C-10.07342057 0.45638468 -6.38308819 -0.00737646 0 0 Z M15.19963074 42.87481689 C-4.02800011 65.09000791 -11.63208528 92.13402104 -9.76130676 121.14044189 C-6.89358437 146.70177515 5.95120869 170.18178675 25.23869324 187.14044189 C48.07061426 205.1105792 74.99192155 213.08506353 103.95451355 209.83575439 C129.53052454 205.98412308 153.55428852 192.67863344 169.55509949 172.17169189 C186.49215431 148.55725336 193.96352141 121.12374829 189.58244324 92.16387939 C184.93812571 66.98580625 169.81424802 43.40739017 149.05119324 28.51544189 C105.72706419 -0.90233324 51.3568206 5.38940373 15.19963074 42.87481689 Z " fill="#E7D5B1" transform="translate(34.76130676269531,14.85955810546875)"/>
<path d="M0 0 C0 0.66 0 1.32 0 2 C0.66 2 1.32 2 2 2 C4.02558881 5.34939881 4.21738987 7.86962551 4.125 11.75 C4.10695312 12.73484375 4.08890625 13.7196875 4.0703125 14.734375 C4.04710937 15.48203125 4.02390625 16.2296875 4 17 C4.54527344 17.23203125 5.09054688 17.4640625 5.65234375 17.703125 C8.66747577 19.36872205 11.00031131 21.44925913 13.5625 23.75 C14.98755859 25.01070312 14.98755859 25.01070312 16.44140625 26.296875 C20.62595347 30.71780123 22.30114774 34.64267511 22.5625 40.6875 C22.73628873 44.49505303 22.82216715 45.73325072 25 49 C24.90422596 52.06476928 24.11115579 55.01431998 23.4375 58 C23.20063477 59.22976562 23.20063477 59.22976562 22.95898438 60.484375 C22.78560547 61.27328125 22.61222656 62.0621875 22.43359375 62.875 C22.27947021 63.59429687 22.12534668 64.31359375 21.96655273 65.0546875 C20.55018461 67.90531171 18.85390343 68.66208531 16 70 C6.24762857 72.34461075 -3.8973764 72.36526343 -13.875 72.3125 C-14.92433716 72.31026428 -14.92433716 72.31026428 -15.99487305 72.3079834 C-43.62035134 72.20220519 -43.62035134 72.20220519 -54 65 C-55.1875 62.4375 -55.1875 62.4375 -55 60 C-53.9375 58.125 -53.9375 58.125 -52 57 C-48.8125 57.3125 -48.8125 57.3125 -46 58 C-45.67 55.03 -45.34 52.06 -45 49 C-44.34 49 -43.68 49 -43 49 C-43 49.99 -43 50.98 -43 52 C-41.35 52 -39.7 52 -38 52 C-38 52.33 -38 52.66 -38 53 C-35.69 53 -33.38 53 -31 53 C-31 53.66 -31 54.32 -31 55 C-34.05263664 55.98120464 -35.94736336 55.98120464 -39 55 C-39 56.65 -39 58.3 -39 60 C-39.66 60 -40.32 60 -41 60 C-41.33 61.32 -41.66 62.64 -42 64 C-42 63.34 -42 62.68 -42 62 C-43.65 62 -45.3 62 -47 62 C-47.66 63.32 -48.32 64.64 -49 66 C-44.46859347 66.93380961 -44.46859347 66.93380961 -40 66 C-38.31454276 65.90712229 -36.625507 65.87002796 -34.9375 65.875 C-34.05964844 65.87242188 -33.18179688 65.86984375 -32.27734375 65.8671875 C-30 66 -30 66 -28 67 C-26.33805547 67.35613097 -24.671549 67.69208308 -23 68 C-22.505 66.515 -22.505 66.515 -22 65 C-21.01 65.33 -20.02 65.66 -19 66 C-19 65.34 -19 64.68 -19 64 C-19.56509277 63.98018066 -20.13018555 63.96036133 -20.71240234 63.93994141 C-23.26707997 63.84481764 -25.82092541 63.73508942 -28.375 63.625 C-29.26445313 63.5940625 -30.15390625 63.563125 -31.0703125 63.53125 C-31.92109375 63.49257812 -32.771875 63.45390625 -33.6484375 63.4140625 C-34.82672119 63.36693115 -34.82672119 63.36693115 -36.02880859 63.31884766 C-38 63 -38 63 -40 61 C-39.195625 60.87625 -38.39125 60.7525 -37.5625 60.625 C-36.716875 60.41875 -35.87125 60.2125 -35 60 C-34.67 59.34 -34.34 58.68 -34 58 C-30.62537285 58.54723683 -28.91765 59.0549 -26 61 C-25.34 61 -24.68 61 -24 61 C-23.67 59.02 -23.34 57.04 -23 55 C-22.34 55 -21.68 55 -21 55 C-21 53.35 -21 51.7 -21 50 C-20.29875 50.20625 -19.5975 50.4125 -18.875 50.625 C-15.37137231 51.08199492 -13.30197635 50.16944996 -10 49 C-7.125 48.875 -7.125 48.875 -5 49 C-5.33 48.34 -5.66 47.68 -6 47 C-6.32976611 40.07491167 -5.41752847 33.77122974 -4 27 C-3.34 27.33 -2.68 27.66 -2 28 C-1.01 26.02 -0.02 24.04 1 22 C-1.33075929 22.95865509 -1.33075929 22.95865509 -3 26 C-3.99 25.67 -4.98 25.34 -6 25 C-6.99 25.33 -7.98 25.66 -9 26 C-12 22.25 -12 22.25 -12 20 C-12.66 20 -13.32 20 -14 20 C-14.495 17.03 -14.495 17.03 -15 14 C-14.01 13.67 -13.02 13.34 -12 13 C-12 11.02 -12 9.04 -12 7 C-12.99 7.99 -13.98 8.98 -15 10 C-15.99 9.67 -16.98 9.34 -18 9 C-17.859375 6.6796875 -17.859375 6.6796875 -17 4 C-14.453125 2.3828125 -14.453125 2.3828125 -11.25 1.125 C-10.20328125 0.69445313 -9.1565625 0.26390625 -8.078125 -0.1796875 C-4.8731234 -1.03381229 -3.13843882 -0.94153165 0 0 Z " fill="#36888D" transform="translate(140,51)"/>
<path d="M0 0 C0.99 0.495 0.99 0.495 2 1 C2 1.66 2 2.32 2 3 C1.34 3 0.68 3 0 3 C0 3.66 0 4.32 0 5 C0.99 5.495 0.99 5.495 2 6 C1.505 6.598125 1.01 7.19625 0.5 7.8125 C-1.28276418 9.97029994 -1.28276418 9.97029994 -1 13 C-0.01 13.495 -0.01 13.495 1 14 C0.01 14.33 -0.98 14.66 -2 15 C-0.35 15 1.3 15 3 15 C3.28875 13.9275 3.5775 12.855 3.875 11.75 C4.72820109 8.90599636 5.5636503 6.56491017 7 4 C8.32 4.66 9.64 5.32 11 6 C10.47215635 9.11109883 9.89686441 12.2115624 9.3125 15.3125 C9.16361328 16.19357422 9.01472656 17.07464844 8.86132812 17.98242188 C8.61479492 19.25375977 8.61479492 19.25375977 8.36328125 20.55078125 C8.22188721 21.33106689 8.08049316 22.11135254 7.93481445 22.9152832 C6.58620924 25.92278906 4.96153533 26.63515654 2 28 C-7.75237143 30.34461075 -17.8973764 30.36526343 -27.875 30.3125 C-28.92433716 30.31026428 -28.92433716 30.31026428 -29.99487305 30.3079834 C-57.62035134 30.20220519 -57.62035134 30.20220519 -68 23 C-69.1875 20.4375 -69.1875 20.4375 -69 18 C-67.9375 16.125 -67.9375 16.125 -66 15 C-62.8125 15.3125 -62.8125 15.3125 -60 16 C-59.67 13.03 -59.34 10.06 -59 7 C-58.34 7 -57.68 7 -57 7 C-57 7.99 -57 8.98 -57 10 C-55.35 10 -53.7 10 -52 10 C-52 10.33 -52 10.66 -52 11 C-49.69 11 -47.38 11 -45 11 C-45 11.66 -45 12.32 -45 13 C-48.05263664 13.98120464 -49.94736336 13.98120464 -53 13 C-53 14.65 -53 16.3 -53 18 C-53.66 18 -54.32 18 -55 18 C-55.33 19.32 -55.66 20.64 -56 22 C-56 21.34 -56 20.68 -56 20 C-57.65 20 -59.3 20 -61 20 C-61.66 21.32 -62.32 22.64 -63 24 C-58.46859347 24.93380961 -58.46859347 24.93380961 -54 24 C-52.31454276 23.90712229 -50.625507 23.87002796 -48.9375 23.875 C-48.05964844 23.87242188 -47.18179688 23.86984375 -46.27734375 23.8671875 C-44 24 -44 24 -42 25 C-40.33805547 25.35613097 -38.671549 25.69208308 -37 26 C-36.505 24.515 -36.505 24.515 -36 23 C-35.01 23.33 -34.02 23.66 -33 24 C-33 23.34 -33 22.68 -33 22 C-33.56509277 21.98018066 -34.13018555 21.96036133 -34.71240234 21.93994141 C-37.26707997 21.84481764 -39.82092541 21.73508942 -42.375 21.625 C-43.26445313 21.5940625 -44.15390625 21.563125 -45.0703125 21.53125 C-45.92109375 21.49257812 -46.771875 21.45390625 -47.6484375 21.4140625 C-48.43395996 21.3826416 -49.21948242 21.3512207 -50.02880859 21.31884766 C-52 21 -52 21 -54 19 C-53.195625 18.87625 -52.39125 18.7525 -51.5625 18.625 C-50.716875 18.41875 -49.87125 18.2125 -49 18 C-48.67 17.34 -48.34 16.68 -48 16 C-44.62537285 16.54723683 -42.91765 17.0549 -40 19 C-39.34 19 -38.68 19 -38 19 C-37.67 17.02 -37.34 15.04 -37 13 C-36.34 13 -35.68 13 -35 13 C-35 11.35 -35 9.7 -35 8 C-34.29875 8.20625 -33.5975 8.4125 -32.875 8.625 C-29.94461484 9.22261705 -29.94461484 9.22261705 -27.0625 8 C-23.57982209 6.86279905 -21.51994294 7.16191835 -18 8 C-17.0234375 14.0546875 -17.0234375 14.0546875 -17 16 C-17.66 16.66 -18.32 17.32 -19 18 C-19.66 17.01 -20.32 16.02 -21 15 C-21.66 15.66 -22.32 16.32 -23 17 C-23.66 16.34 -24.32 15.68 -25 15 C-25 15.99 -25 16.98 -25 18 C-25.31088368 19.67099977 -25.64080332 21.33871537 -26 23 C-23.69 23 -21.38 23 -19 23 C-19 21.68 -19 20.36 -19 19 C-18.34 19 -17.68 19 -17 19 C-16.67 18.34 -16.34 17.68 -16 17 C-15.01 16.67 -14.02 16.34 -13 16 C-12.67 15.34 -12.34 14.68 -12 14 C-13.32 13.34 -14.64 12.68 -16 12 C-15.38511719 11.81824219 -14.77023438 11.63648437 -14.13671875 11.44921875 C-13.32847656 11.19785156 -12.52023438 10.94648437 -11.6875 10.6875 C-10.48673828 10.32205078 -10.48673828 10.32205078 -9.26171875 9.94921875 C-6.88593789 8.95212938 -5.75402699 7.83632738 -4 6 C-3.34 6 -2.68 6 -2 6 C-1.34 4.02 -0.68 2.04 0 0 Z " fill="#224E5A" transform="translate(154,93)"/>
<path d="M0 0 C2.13777692 -0.03393297 4.27618648 -0.05822635 6.4140625 -0.03125 C8.09636033 -0.01092012 9.77973632 -0.02970424 11.4609375 -0.09375 C13.91131494 -0.06118684 15.7216734 0.08591332 18 1 C20.12381563 3.72429921 20.97723951 6.73192345 22 10 C22.74860945 11.9380377 23.49861434 13.87553696 24.25 15.8125 C25.5506429 19.27921357 26 21.20831339 26 25 C26.639375 25.103125 27.27875 25.20625 27.9375 25.3125 C28.618125 25.539375 29.29875 25.76625 30 26 C31.16180951 29.48542854 30.8772131 29.97230669 29.3125 33.125 C28.97863281 33.82882813 28.64476563 34.53265625 28.30078125 35.2578125 C27 37 27 37 24.94921875 37.8359375 C24.30597656 37.89007813 23.66273437 37.94421875 23 38 C22 37 21 36 20 35 C16.9582904 35.28516028 15.60954198 36.26030535 13 38 C14.03640625 38.06058594 15.0728125 38.12117188 16.140625 38.18359375 C17.51042873 38.26803371 18.88021975 38.35267997 20.25 38.4375 C20.93191406 38.47681641 21.61382812 38.51613281 22.31640625 38.55664062 C25.64448041 38.76666472 28.80255402 39.01934002 32 40 C32 40.66 32 41.32 32 42 C31.01 42 30.02 42 29 42 C29 42.99 29 43.98 29 45 C27.54119891 44.85892253 26.08296449 44.71197585 24.625 44.5625 C23.81289062 44.48128906 23.00078125 44.40007812 22.1640625 44.31640625 C20 44 20 44 18 43 C16.845 43 15.69 43 14.5 43 C11 43 11 43 9 42 C8.67 42.66 8.34 43.32 8 44 C6.02 43.34 4.04 42.68 2 42 C2 40.68 2 39.36 2 38 C5.01031744 37.06576355 5.86650268 36.95550089 9 38 C9.33 37.34 9.66 36.68 10 36 C10.66 36 11.32 36 12 36 C12 34.35 12 32.7 12 31 C14.64 31 17.28 31 20 31 C19.67 30.67 19.34 30.34 19 30 C17.906875 30.020625 16.81375 30.04125 15.6875 30.0625 C12.28396118 30.0048129 10.78905434 29.78499478 8 28 C8 27.01 8 26.02 8 25 C7.01 27.97 6.02 30.94 5 34 C4.01 33.67 3.02 33.34 2 33 C2.165 32.236875 2.33 31.47375 2.5 30.6875 C3.09145396 27.96403764 3.09145396 27.96403764 3 25 C2.34 25 1.68 25 1 25 C1 27.31 1 29.62 1 32 C0.67 31.34 0.34 30.68 0 30 C-0.66 30 -1.32 30 -2 30 C-2.33 28.35 -2.66 26.7 -3 25 C-0.03 24.34 2.94 23.68 6 23 C5.566875 21.67484375 5.13375 20.3496875 4.6875 18.984375 C4.12469564 17.23968148 3.56221238 15.49488437 3 13.75 C2.71382813 12.87730469 2.42765625 12.00460938 2.1328125 11.10546875 C1.72675781 9.83896484 1.72675781 9.83896484 1.3125 8.546875 C1.06113281 7.77182617 0.80976562 6.99677734 0.55078125 6.19824219 C0 4 0 4 0 0 Z " fill="#98968E" transform="translate(89,75)"/>
<path d="M0 0 C2.625 -0.1875 2.625 -0.1875 5 0 C4.34 0.66 3.68 1.32 3 2 C3.99 2 4.98 2 6 2 C6 2.66 6 3.32 6 4 C7.98 3.67 9.96 3.34 12 3 C12.33 4.32 12.66 5.64 13 7 C16.12498166 7.3373846 16.12498166 7.3373846 18.1875 5 C18.785625 4.34 19.38375 3.68 20 3 C20.33579068 9.87749051 20.19295632 14.85969939 17 21 C16.32723284 22.6642135 15.65793165 24.32986582 15 26 C13.02 26 11.04 26 9 26 C9.66 25.01 10.32 24.02 11 23 C10.67619874 21.66431979 10.34342449 20.33076989 10 19 C10.66 18.34 11.32 17.68 12 17 C12 15.68 12 14.36 12 13 C12.66 13 13.32 13 14 13 C13.67 12.34 13.34 11.68 13 11 C12.690625 11.70125 12.38125 12.4025 12.0625 13.125 C8.6434417 17.89096005 3.55140975 21.14953008 -2 23 C-1.34 23.33 -0.68 23.66 0 24 C-0.33 24.99 -0.66 25.98 -1 27 C-1.66 27 -2.32 27 -3 27 C-3.33 27.99 -3.66 28.98 -4 30 C-4.99 29.67 -5.98 29.34 -7 29 C-7 29.99 -7 30.98 -7 32 C-6.34 32.33 -5.68 32.66 -5 33 C-11.75 34.125 -11.75 34.125 -14 33 C-14.59355614 30.35139573 -14.74209269 27.70802678 -15 25 C-12.08517222 24.19032562 -10.53886783 23.78154007 -7.6875 24.9375 C-6.8521875 25.4634375 -6.8521875 25.4634375 -6 26 C-6.54986048 21.49296937 -6.54986048 21.49296937 -7.5859375 17.0859375 C-8.10842015 14.45380794 -7.73112999 12.49537475 -7.1875 9.875 C-7.01605469 9.00617188 -6.84460938 8.13734375 -6.66796875 7.2421875 C-6 5 -6 5 -4 3 C-4 5.31 -4 7.62 -4 10 C-2.88125501 7.99764861 -2.88125501 7.99764861 -2.5625 5.5625 C-2 3 -2 3 0 0 Z " fill="#266D77" transform="translate(142,83)"/>
<path d="M0 0 C2.13777692 -0.03393297 4.27618648 -0.05822635 6.4140625 -0.03125 C8.09636033 -0.01092012 9.77973632 -0.02970424 11.4609375 -0.09375 C13.92121879 -0.06105523 15.71621984 0.07092711 18 1 C21.58514571 5.6122949 22.44221143 11.31055662 23 17 C23.31597611 18.33755299 23.64569728 19.67208492 24 21 C21.75256955 21.53181175 19.50192898 22.05007126 17.25 22.5625 C15.37054688 22.99755859 15.37054688 22.99755859 13.453125 23.44140625 C8.83648161 24.18821621 8.83648161 24.18821621 6 23 C4.99511719 21.20581055 4.99511719 21.20581055 4.296875 18.88671875 C4.0390625 18.05076172 3.78125 17.21480469 3.515625 16.35351562 C3.26296875 15.47373047 3.0103125 14.59394531 2.75 13.6875 C2.481875 12.81931641 2.21375 11.95113281 1.9375 11.05664062 C0.7581772 7.1365957 0 4.14277514 0 0 Z " fill="#FCF7B9" transform="translate(89,75)"/>
<path d="M0 0 C0.9765625 6.0546875 0.9765625 6.0546875 1 8 C0.34 8.66 -0.32 9.32 -1 10 C-1.66 9.01 -2.32 8.02 -3 7 C-3.66 7.66 -4.32 8.32 -5 9 C-5.66 8.34 -6.32 7.68 -7 7 C-7 7.99 -7 8.98 -7 10 C-7.31088368 11.67099977 -7.64080332 13.33871537 -8 15 C-7.34 15 -6.68 15 -6 15 C-6 15.66 -6 16.32 -6 17 C-3.36 17.33 -0.72 17.66 2 18 C-3.20777052 21.47184701 -8.78303353 21.13923989 -14.875 21.0625 C-15.90753906 21.05573242 -15.90753906 21.05573242 -16.9609375 21.04882812 C-18.64066335 21.03716336 -20.32034375 21.01923271 -22 21 C-21.67 20.01 -21.34 19.02 -21 18 C-20.34 18 -19.68 18 -19 18 C-18.67 17.01 -18.34 16.02 -18 15 C-17.01 15.33 -16.02 15.66 -15 16 C-15 15.34 -15 14.68 -15 14 C-15.56509277 13.98018066 -16.13018555 13.96036133 -16.71240234 13.93994141 C-19.26707997 13.84481764 -21.82092541 13.73508942 -24.375 13.625 C-25.26445313 13.5940625 -26.15390625 13.563125 -27.0703125 13.53125 C-27.92109375 13.49257812 -28.771875 13.45390625 -29.6484375 13.4140625 C-30.43395996 13.3826416 -31.21948242 13.3512207 -32.02880859 13.31884766 C-34 13 -34 13 -36 11 C-35.195625 10.87625 -34.39125 10.7525 -33.5625 10.625 C-32.716875 10.41875 -31.87125 10.2125 -31 10 C-30.67 9.34 -30.34 8.68 -30 8 C-26.62537285 8.54723683 -24.91765 9.0549 -22 11 C-21.34 11 -20.68 11 -20 11 C-19.67 9.02 -19.34 7.04 -19 5 C-18.34 5 -17.68 5 -17 5 C-17 3.35 -17 1.7 -17 0 C-16.29875 0.20625 -15.5975 0.4125 -14.875 0.625 C-11.94461484 1.22261705 -11.94461484 1.22261705 -9.0625 0 C-5.57982209 -1.13720095 -3.51994294 -0.83808165 0 0 Z " fill="#286A72" transform="translate(136,101)"/>
<path d="M0 0 C2.625 -0.1875 2.625 -0.1875 5 0 C4.34 0.66 3.68 1.32 3 2 C3.99 2 4.98 2 6 2 C6 2.99 6 3.98 6 5 C6.99 5 7.98 5 9 5 C9 5.99 9 6.98 9 8 C5.62902617 9.49821059 3.79557881 10 0 10 C-0.33 10.66 -0.66 11.32 -1 12 C-0.34 12.33 0.32 12.66 1 13 C0.67 13.5775 0.34 14.155 0 14.75 C-1.27075898 17.19883862 -1.27075898 17.19883862 -1 21 C-1.66 21.33 -2.32 21.66 -3 22 C-2.01 22.66 -1.02 23.32 0 24 C-0.33 24.99 -0.66 25.98 -1 27 C-1.66 27 -2.32 27 -3 27 C-3.33 27.99 -3.66 28.98 -4 30 C-4.99 29.67 -5.98 29.34 -7 29 C-7 29.99 -7 30.98 -7 32 C-6.34 32.33 -5.68 32.66 -5 33 C-11.75 34.125 -11.75 34.125 -14 33 C-14.59355614 30.35139573 -14.74209269 27.70802678 -15 25 C-12.08517222 24.19032562 -10.53886783 23.78154007 -7.6875 24.9375 C-6.8521875 25.4634375 -6.8521875 25.4634375 -6 26 C-6.54986048 21.49296937 -6.54986048 21.49296937 -7.5859375 17.0859375 C-8.10842015 14.45380794 -7.73112999 12.49537475 -7.1875 9.875 C-7.01605469 9.00617188 -6.84460938 8.13734375 -6.66796875 7.2421875 C-6 5 -6 5 -4 3 C-4 5.31 -4 7.62 -4 10 C-2.88125501 7.99764861 -2.88125501 7.99764861 -2.5625 5.5625 C-2 3 -2 3 0 0 Z " fill="#51A4A4" transform="translate(142,83)"/>
<path d="M0 0 C0 0.66 0 1.32 0 2 C0.66 2 1.32 2 2 2 C3.90608098 5.21182149 4.22266247 7.53882603 4.125 11.25 C4.10695312 12.14203125 4.08890625 13.0340625 4.0703125 13.953125 C4.04710937 14.62859375 4.02390625 15.3040625 4 16 C0.73988358 15.30621489 -0.79038253 14.54106009 -3 12 C-6.11785113 12.64644661 -6.11785113 12.64644661 -7 15 C-7.33 14.01 -7.66 13.02 -8 12 C-8.99 12 -9.98 12 -11 12 C-11.33 10.35 -11.66 8.7 -12 7 C-12.99 7.99 -13.98 8.98 -15 10 C-15.99 9.67 -16.98 9.34 -18 9 C-17.859375 6.6796875 -17.859375 6.6796875 -17 4 C-14.453125 2.3828125 -14.453125 2.3828125 -11.25 1.125 C-10.20328125 0.69445313 -9.1565625 0.26390625 -8.078125 -0.1796875 C-4.8731234 -1.03381229 -3.13843882 -0.94153165 0 0 Z " fill="#2E262B" transform="translate(140,51)"/>
<path d="M0 0 C0.66 0 1.32 0 2 0 C2 0.99 2 1.98 2 3 C3.65 3 5.3 3 7 3 C7 3.33 7 3.66 7 4 C9.31 4 11.62 4 14 4 C14 4.66 14 5.32 14 6 C10.94736336 6.98120464 9.05263664 6.98120464 6 6 C6 7.65 6 9.3 6 11 C5.34 11 4.68 11 4 11 C3.67 12.32 3.34 13.64 3 15 C3 14.34 3 13.68 3 13 C1.35 13 -0.3 13 -2 13 C-2.66 14.32 -3.32 15.64 -4 17 C0.53140653 17.93380961 0.53140653 17.93380961 5 17 C6.72795352 16.93197033 8.45835365 16.91504355 10.1875 16.9375 C11.08855469 16.94652344 11.98960938 16.95554687 12.91796875 16.96484375 C13.60503906 16.97644531 14.29210937 16.98804687 15 17 C15.33 17.99 15.66 18.98 16 20 C7.26474397 22.25425962 -0.01874596 21.13395767 -8 17 C-8.66 16.34 -9.32 15.68 -10 15 C-9.67028521 11.70285207 -9.3773161 10.3773161 -7 8 C-3.875 8.375 -3.875 8.375 -1 9 C-0.67 6.03 -0.34 3.06 0 0 Z " fill="#62453B" transform="translate(95,100)"/>
<path d="M0 0 C3.3 0 6.6 0 10 0 C10 0.66 10 1.32 10 2 C9.01 2.495 9.01 2.495 8 3 C9.98 5.97 9.98 5.97 12 9 C12.845625 8.071875 13.69125 7.14375 14.5625 6.1875 C15.03816406 5.66542969 15.51382813 5.14335937 16.00390625 4.60546875 C16.33261719 4.07566406 16.66132812 3.54585937 17 3 C16.67 2.01 16.34 1.02 16 0 C18.31 0 20.62 0 23 0 C23 0.66 23 1.32 23 2 C22.39671875 2.24492187 21.7934375 2.48984375 21.171875 2.7421875 C18.61035221 4.22565933 17.72499008 5.58473931 16.25 8.125 C15.82203125 8.84945312 15.3940625 9.57390625 14.953125 10.3203125 C14.63859375 10.87460938 14.3240625 11.42890625 14 12 C15.28946305 13.79325326 16.58164352 15.58455278 17.875 17.375 C18.59429687 18.37273437 19.31359375 19.37046875 20.0546875 20.3984375 C21.8994658 22.99469894 21.8994658 22.99469894 24 25 C20.7 25 17.4 25 14 25 C14.99 24.67 15.98 24.34 17 24 C16.6390625 23.51789063 16.278125 23.03578125 15.90625 22.5390625 C15.4421875 21.90742188 14.978125 21.27578125 14.5 20.625 C14.0359375 19.99851563 13.571875 19.37203125 13.09375 18.7265625 C12 17 12 17 12 15 C11.34 15 10.68 15 10 15 C9.731875 15.5775 9.46375 16.155 9.1875 16.75 C7.98280141 19.0325868 6.59201885 20.9737942 5 23 C5.33 23.66 5.66 24.32 6 25 C3.69 25 1.38 25 -1 25 C-0.278125 24.29875 0.44375 23.5975 1.1875 22.875 C3.99823813 20.07229255 6.49516226 17.07737208 9 14 C7.54822555 9.88663907 5.61875142 6.49166855 3 3 C2.01 2.67 1.02 2.34 0 2 C0 1.34 0 0.68 0 0 Z " fill="#4B6366" transform="translate(82,135)"/>
<path d="M0 0 C0.33 0.66 0.66 1.32 1 2 C1.99 2 2.98 2 4 2 C4.33 2.66 4.66 3.32 5 4 C5.99 3.67 6.98 3.34 8 3 C8.33 2.01 8.66 1.02 9 0 C9.061875 0.928125 9.061875 0.928125 9.125 1.875 C9.41375 2.57625 9.7025 3.2775 10 4 C12.99615946 5.3045656 12.99615946 5.3045656 16 6 C16 7.32 16 8.64 16 10 C14 12 14 12 11 13 C10.01 14.485 10.01 14.485 9 16 C8.01 15.67 7.02 15.34 6 15 C5.01 15.33 4.02 15.66 3 16 C0 12.25 0 12.25 0 10 C-0.66 10 -1.32 10 -2 10 C-2.33 8.02 -2.66 6.04 -3 4 C-2.01 3.67 -1.02 3.34 0 3 C0 2.01 0 1.02 0 0 Z " fill="#D89C70" transform="translate(128,61)"/>
<path d="M0 0 C1.98 0 3.96 0 6 0 C6.33 2.97 6.66 5.94 7 9 C7.928125 8.773125 8.85625 8.54625 9.8125 8.3125 C13 8 13 8 14.6875 9.0625 C16.63021333 11.93031491 16.2890208 14.26963321 16.1875 17.6875 C16.16042969 18.86699219 16.13335937 20.04648438 16.10546875 21.26171875 C16.07066406 22.16535156 16.03585938 23.06898438 16 24 C16.66 24.33 17.32 24.66 18 25 C15.36 25 12.72 25 10 25 C10.66 24.67 11.32 24.34 12 24 C12 19.38 12 14.76 12 10 C7.4158037 11.45288986 7.4158037 11.45288986 6 13 C5.76636119 14.84891946 5.58696365 16.70488031 5.4375 18.5625 C5.35371094 19.57441406 5.26992187 20.58632812 5.18359375 21.62890625 C5.12300781 22.41136719 5.06242188 23.19382813 5 24 C5.99 24.33 6.98 24.66 8 25 C5.36 25 2.72 25 0 25 C0.66 24.67 1.32 24.34 2 24 C2 16.74 2 9.48 2 2 C1.34 2 0.68 2 0 2 C0 1.34 0 0.68 0 0 Z " fill="#667A7D" transform="translate(150,135)"/>
<path d="M0 0 C0.495 1.485 0.495 1.485 1 3 C1.99 3 2.98 3 4 3 C4 3.66 4 4.32 4 5 C4.99 5.33 5.98 5.66 7 6 C7 6.66 7 7.32 7 8 C6.01 8.33 5.02 8.66 4 9 C4.66 9.66 5.32 10.32 6 11 C-1.25889087 12.19091178 -8.49891994 12.15204865 -15.8359375 12.13037109 C-17.9948631 12.12501275 -20.15358073 12.13034012 -22.3125 12.13671875 C-28.94686454 12.13959027 -35.44183479 12.07594898 -42 11 C-38.86501708 9.14223235 -36.62528568 8.79859524 -33 9 C-32.67 8.34 -32.34 7.68 -32 7 C-31.01 7.66 -30.02 8.32 -29 9 C-29.33 9.66 -29.66 10.32 -30 11 C-23.07 10.34 -16.14 9.68 -9 9 C-9 8.34 -9 7.68 -9 7 C-8.401875 6.9175 -7.80375 6.835 -7.1875 6.75 C-4.3744502 5.78552578 -3.62408481 4.43612722 -2 2 C-1.34 1.34 -0.68 0.68 0 0 Z " fill="#24242D" transform="translate(144,111)"/>
<path d="M0 0 C3.10468986 2.54020079 3.98485936 5.17370067 5 9 C5 10.32 5 11.64 5 13 C2.37700199 13.69608034 -0.2479207 14.38215382 -2.875 15.0625 C-3.62136719 15.26166016 -4.36773437 15.46082031 -5.13671875 15.66601562 C-10.7734375 17.11328125 -10.7734375 17.11328125 -13 16 C-13 15.01 -13 14.02 -13 13 C-13.99 15.97 -14.98 18.94 -16 22 C-16.99 21.67 -17.98 21.34 -19 21 C-18.835 20.236875 -18.67 19.47375 -18.5 18.6875 C-17.90854604 15.96403764 -17.90854604 15.96403764 -18 13 C-18.66 13 -19.32 13 -20 13 C-20 15.31 -20 17.62 -20 20 C-20.33 19.34 -20.66 18.68 -21 18 C-21.66 18 -22.32 18 -23 18 C-23.33 16.35 -23.66 14.7 -24 13 C-23.21238281 12.89042969 -22.42476563 12.78085938 -21.61328125 12.66796875 C-13.63047397 11.50597432 -5.83310132 9.92301996 2 8 C1.34 5.36 0.68 2.72 0 0 Z " fill="#8B9690" transform="translate(110,87)"/>
<path d="M0 0 C2.13777692 -0.03393297 4.27618648 -0.05822635 6.4140625 -0.03125 C8.09636033 -0.01092012 9.77973632 -0.02970424 11.4609375 -0.09375 C13.93746881 -0.06083928 15.71014406 0.03826051 18 1 C19.97558931 3.8146837 21.04963753 6.71028375 22 10 C21.01 10.495 21.01 10.495 20 11 C20 10.34 20 9.68 20 9 C19.319375 9.7425 19.319375 9.7425 18.625 10.5 C17 12 17 12 15 12 C15 11.34 15 10.68 15 10 C13.02 10.66 11.04 11.32 9 12 C9 10.35 9 8.7 9 7 C11.66666667 7 14.33333333 7 17 7 C17.33 5.68 17.66 4.36 18 3 C13.05 3 8.1 3 3 3 C2.67 3.66 2.34 4.32 2 5 C2.66 5 3.32 5 4 5 C4.64964023 6.89453221 5.29455115 8.79068649 5.9375 10.6875 C6.29714844 11.74324219 6.65679687 12.79898438 7.02734375 13.88671875 C7.87206518 16.59050583 8.50893785 19.21386842 9 22 C8.01 22.33 7.02 22.66 6 23 C4.9905304 19.91968584 3.99410379 16.8353041 3 13.75 C2.71382813 12.87730469 2.42765625 12.00460938 2.1328125 11.10546875 C1.72675781 9.83896484 1.72675781 9.83896484 1.3125 8.546875 C1.06113281 7.77182617 0.80976562 6.99677734 0.55078125 6.19824219 C0 4 0 4 0 0 Z " fill="#63696A" transform="translate(89,75)"/>
<path d="M0 0 C1.875 1.6875 1.875 1.6875 3 4 C3 5.65 3 7.3 3 9 C-0.3 9 -3.6 9 -7 9 C-6.34 10.98 -5.68 12.96 -5 15 C-2.69 15 -0.38 15 2 15 C1.01 16.485 1.01 16.485 0 18 C-6.46128501 17.39044481 -6.46128501 17.39044481 -8.703125 15.765625 C-11.22947624 12.32613475 -10.59106878 8.0577868 -10 4 C-7.40510416 -0.19175482 -4.78747627 -0.81488958 0 0 Z " fill="#5A7073" transform="translate(129,143)"/>
<path d="M0 0 C0.625 3.0625 0.625 3.0625 1 6 C-2.13953895 7.84913139 -4.29254201 8.21653679 -7.9140625 8.046875 C-8.83960937 8.00433594 -9.76515625 7.96179688 -10.71875 7.91796875 C-12.15734375 7.83482422 -12.15734375 7.83482422 -13.625 7.75 C-14.59179688 7.71003906 -15.55859375 7.67007813 -16.5546875 7.62890625 C-23.74253268 7.25746732 -23.74253268 7.25746732 -26 5 C-25.195625 4.87625 -24.39125 4.7525 -23.5625 4.625 C-22.716875 4.41875 -21.87125 4.2125 -21 4 C-20.67 3.34 -20.34 2.68 -20 2 C-16.62537285 2.54723683 -14.91765 3.0549 -12 5 C-11.34 5 -10.68 5 -10 5 C-9.67 3.68 -9.34 2.36 -9 1 C-2.25 -1.125 -2.25 -1.125 0 0 Z " fill="#387F84" transform="translate(126,107)"/>
<path d="M0 0 C2.97 0.33 5.94 0.66 9 1 C9 1.33 9 1.66 9 2 C6.69 2 4.38 2 2 2 C2.78637041 5.10712212 3.63924116 8.09244107 5 11 C7.51751876 12.66334085 7.51751876 12.66334085 10 13 C10.33 12.67 10.66 12.34 11 12 C12.66014616 11.63557767 14.32706064 11.30027117 16 11 C17.43088528 13.86177057 16.59991697 15.93375773 16 19 C15.030625 19.12375 14.06125 19.2475 13.0625 19.375 C12.051875 19.58125 11.04125 19.7875 10 20 C9.67 20.66 9.34 21.32 9 22 C7.35 21.67 5.7 21.34 4 21 C4.66 20.67 5.32 20.34 6 20 C5.34 19.67 4.68 19.34 4 19 C3.72978305 17.37869829 3.47188462 15.75411823 3.28515625 14.12109375 C2.78001208 10.36365151 1.86165044 6.68920238 1 3 C0.34 3 -0.32 3 -1 3 C-0.67 2.01 -0.34 1.02 0 0 Z " fill="#EDEAB2" transform="translate(92,77)"/>
<path d="M0 0 C0.33 0.66 0.66 1.32 1 2 C4.3 1.67 7.6 1.34 11 1 C12 4 12 4 11.3359375 5.98046875 C9.72120557 8.42145239 8.05305769 9.68707268 5.625 11.3125 C4.85414063 11.84488281 4.08328125 12.37726563 3.2890625 12.92578125 C1 14 1 14 -1.2890625 13.66796875 C-1.85367188 13.44753906 -2.41828125 13.22710937 -3 13 C-2.34 12.67 -1.68 12.34 -1 12 C-1.33 10.68 -1.66 9.36 -2 8 C-1.34 8 -0.68 8 0 8 C-0.185625 7.05125 -0.37125 6.1025 -0.5625 5.125 C-1 2 -1 2 0 0 Z " fill="#32868B" transform="translate(142,91)"/>
<path d="M0 0 C0.33 0.66 0.66 1.32 1 2 C1.61875 1.814375 2.2375 1.62875 2.875 1.4375 C5 1 5 1 7 2 C7 2.66 7 3.32 7 4 C9.64 4.33 12.28 4.66 15 5 C9.79222948 8.47184701 4.21696647 8.13923989 -1.875 8.0625 C-2.90753906 8.05573242 -2.90753906 8.05573242 -3.9609375 8.04882812 C-5.64066335 8.03716336 -7.32034375 8.01923271 -9 8 C-8.67 7.01 -8.34 6.02 -8 5 C-7.34 5 -6.68 5 -6 5 C-5.67 4.01 -5.34 3.02 -5 2 C-4.01 2.33 -3.02 2.66 -2 3 C-2 2.34 -2 1.68 -2 1 C-1.34 0.67 -0.68 0.34 0 0 Z " fill="#5A3D35" transform="translate(123,114)"/>
<path d="M0 0 C1.32 0.66 2.64 1.32 4 2 C3.44474551 5.13067121 2.85110635 8.25283565 2.25 11.375 C2.09273437 12.26445313 1.93546875 13.15390625 1.7734375 14.0703125 C1.52207031 15.34648438 1.52207031 15.34648438 1.265625 16.6484375 C1.11899414 17.43395996 0.97236328 18.21948242 0.82128906 19.02880859 C0 21 0 21 -2.07910156 22.27197266 C-3.02994629 22.63234619 -3.02994629 22.63234619 -4 23 C-5.125 16.375 -5.125 16.375 -4 13 C-4.99 12.67 -5.98 12.34 -7 12 C-6.01 11.34 -5.02 10.68 -4 10 C-2.77155177 7.5939111 -2.77155177 7.5939111 -1.8125 4.875 C-1.46832031 3.96492188 -1.12414062 3.05484375 -0.76953125 2.1171875 C-0.51558594 1.41851562 -0.26164063 0.71984375 0 0 Z " fill="#3D2F2F" transform="translate(161,97)"/>
<path d="M0 0 C1.1015625 1.73828125 1.1015625 1.73828125 2 4 C1.4609375 6.10546875 1.4609375 6.10546875 0.375 8.1875 C0.03210938 8.88230469 -0.31078125 9.57710937 -0.6640625 10.29296875 C-2.30204553 12.38594707 -3.41729958 12.63493475 -6 13 C-5.67 12.34 -5.34 11.68 -5 11 C-4.34 11 -3.68 11 -3 11 C-3 10.34 -3 9.68 -3 9 C-4.32 8.67 -5.64 8.34 -7 8 C-7 7.34 -7 6.68 -7 6 C-10.47325181 4.8422494 -13.36067448 4.93133348 -17 5 C-16 3 -16 3 -13.92578125 2.1484375 C-9.17052631 0.74105263 -5.01830661 -0.3961821 0 0 Z " fill="#DDA77A" transform="translate(118,100)"/>
<path d="M0 0 C0.33 0.66 0.66 1.32 1 2 C-0.36328125 4.49609375 -0.36328125 4.49609375 -2.3125 7.4375 C-2.94800781 8.40558594 -3.58351562 9.37367187 -4.23828125 10.37109375 C-4.81964844 11.23863281 -5.40101563 12.10617188 -6 13 C-6.99 14.485 -6.99 14.485 -8 16 C-8.66 16 -9.32 16 -10 16 C-10.33 16.99 -10.66 17.98 -11 19 C-13.97 19 -16.94 19 -20 19 C-20 18.67 -20 18.34 -20 18 C-18.35 17.67 -16.7 17.34 -15 17 C-15 15.68 -15 14.36 -15 13 C-14.34 13 -13.68 13 -13 13 C-12.67 12.34 -12.34 11.68 -12 11 C-11.01 10.67 -10.02 10.34 -9 10 C-8.67 9.34 -8.34 8.68 -8 8 C-9.32 7.34 -10.64 6.68 -12 6 C-11.07767578 5.72736328 -11.07767578 5.72736328 -10.13671875 5.44921875 C-8.92435547 5.07216797 -8.92435547 5.07216797 -7.6875 4.6875 C-6.88699219 4.44386719 -6.08648437 4.20023437 -5.26171875 3.94921875 C-2.90035427 2.95817977 -1.66120007 1.91925057 0 0 Z " fill="#236A75" transform="translate(150,99)"/>
<path d="M0 0 C0.99 0.66 1.98 1.32 3 2 C3 2.99 3 3.98 3 5 C1.5390625 6.3515625 1.5390625 6.3515625 -0.375 7.625 C-1.00148437 8.05039062 -1.62796875 8.47578125 -2.2734375 8.9140625 C-4 10 -4 10 -6 11 C-6.33 10.01 -6.66 9.02 -7 8 C-7.99 8.99 -8.98 9.98 -10 11 C-10.99 10.67 -11.98 10.34 -13 10 C-12.8671875 7.68359375 -12.8671875 7.68359375 -12 5 C-9.3828125 3.34765625 -9.3828125 3.34765625 -6.125 2.0625 C-4.52011719 1.39927734 -4.52011719 1.39927734 -2.8828125 0.72265625 C-1.93148437 0.48417969 -0.98015625 0.24570312 0 0 Z " fill="#3E3130" transform="translate(135,50)"/>
<path d="M0 0 C2 2 2 2 2 5 C7.445 3.02 7.445 3.02 13 1 C14.65 2.65 16.3 4.3 18 6 C17.01 6.33 16.02 6.66 15 7 C14.34 6.67 13.68 6.34 13 6 C10.04211431 5.5832448 10.04211431 5.5832448 7 6 C4.532661 8.2206051 4.03847554 9.43569203 3.8125 12.75 C3.874375 13.4925 3.93625 14.235 4 15 C3.01 15.495 3.01 15.495 2 16 C1.34 15.34 0.68 14.68 0 14 C0.66 14 1.32 14 2 14 C1.67 12.68 1.34 11.36 1 10 C0.34 12.97 -0.32 15.94 -1 19 C-1.33 19 -1.66 19 -2 19 C-2.24794402 12.4294834 -1.32388229 6.43028541 0 0 Z " fill="#357378" transform="translate(136,78)"/>
<path d="M0 0 C1.98 0.66 3.96 1.32 6 2 C5.67 2.99 5.34 3.98 5 5 C4.34 5 3.68 5 3 5 C2.67 5.99 2.34 6.98 2 8 C1.01 7.67 0.02 7.34 -1 7 C-1 7.99 -1 8.98 -1 10 C-0.34 10.33 0.32 10.66 1 11 C-5.75 12.125 -5.75 12.125 -8 11 C-8.59355614 8.35139573 -8.74209269 5.70802678 -9 3 C-6.08517222 2.19032562 -4.53886783 1.78154007 -1.6875 2.9375 C-1.130625 3.288125 -0.57375 3.63875 0 4 C0 2.68 0 1.36 0 0 Z " fill="#33868C" transform="translate(136,105)"/>
<path d="M0 0 C2.9375 0.4375 2.9375 0.4375 5.9375 2.4375 C5.9375 3.4275 5.9375 4.4175 5.9375 5.4375 C4.9475 5.4375 3.9575 5.4375 2.9375 5.4375 C2.2775 4.4475 1.6175 3.4575 0.9375 2.4375 C-2.18035113 3.08394661 -2.18035113 3.08394661 -3.0625 5.4375 C-3.19607453 9.11079964 -3.2296568 11.93602959 -2.0625 15.4375 C0.2475 15.4375 2.5575 15.4375 4.9375 15.4375 C3.20789616 17.62226274 2.26826608 18.36965055 -0.5 18.9375 C-3.0625 18.4375 -3.0625 18.4375 -5.375 16.4375 C-7.53402087 12.59924068 -7.91374613 9.74584777 -7.0625 5.4375 C-5.06536433 1.75048031 -4.19133905 0.59876272 0 0 Z " fill="#4D6568" transform="translate(142.0625,142.5625)"/>
<path d="M0 0 C0.66 0 1.32 0 2 0 C2 1.32 2 2.64 2 4 C3.32 4 4.64 4 6 4 C6 4.66 6 5.32 6 6 C4.68 6 3.36 6 2 6 C2.0868748 7.95917659 2.19504512 9.91741871 2.3125 11.875 C2.37050781 12.96554688 2.42851563 14.05609375 2.48828125 15.1796875 C2.65714844 16.11039063 2.82601562 17.04109375 3 18 C3.99 18.66 4.98 19.32 6 20 C3.625 20.625 3.625 20.625 1 21 C-1 19 -1 19 -1.1953125 15.9609375 C-1.17210938 14.77757812 -1.14890625 13.59421875 -1.125 12.375 C-1.10695313 11.18648437 -1.08890625 9.99796875 -1.0703125 8.7734375 C-1.04710938 7.85820312 -1.02390625 6.94296875 -1 6 C-1.66 6 -2.32 6 -3 6 C-3 5.34 -3 4.68 -3 4 C-2.34 4 -1.68 4 -1 4 C-0.67 2.68 -0.34 1.36 0 0 Z " fill="#486163" transform="translate(110,140)"/>
<path d="M0 0 C0.68835938 0.10892578 1.37671875 0.21785156 2.0859375 0.33007812 C3.7684411 0.59881134 5.44720401 0.89079053 7.125 1.1875 C7.125 1.8475 7.125 2.5075 7.125 3.1875 C6.135 3.1875 5.145 3.1875 4.125 3.1875 C4.125 4.1775 4.125 5.1675 4.125 6.1875 C2.66619891 6.04642253 1.20796449 5.89947585 -0.25 5.75 C-1.46816406 5.62818359 -1.46816406 5.62818359 -2.7109375 5.50390625 C-4.875 5.1875 -4.875 5.1875 -6.875 4.1875 C-9.2079866 4.14727609 -11.54206666 4.14429753 -13.875 4.1875 C-13.875 3.5275 -13.875 2.8675 -13.875 2.1875 C-8.97963537 -0.83969588 -5.50494447 -0.99750447 0 0 Z " fill="#E5E3C5" transform="translate(113.875,113.8125)"/>
<path d="M0 0 C2.625 -0.1875 2.625 -0.1875 5 0 C4.34 0.66 3.68 1.32 3 2 C3.99 2 4.98 2 6 2 C6 2.99 6 3.98 6 5 C6.99 5 7.98 5 9 5 C9 5.99 9 6.98 9 8 C6.09399739 9.25664978 4.20395416 10 1 10 C1 9.34 1 8.68 1 8 C-0.32 8 -1.64 8 -3 8 C-2.45276317 4.62537285 -1.9451 2.91765 0 0 Z " fill="#3A9598" transform="translate(142,83)"/>
<path d="M0 0 C0.66 0.66 1.32 1.32 2 2 C1.34 3.32 0.68 4.64 0 6 C4.53140653 6.93380961 4.53140653 6.93380961 9 6 C10.72795352 5.93197033 12.45835365 5.91504355 14.1875 5.9375 C15.08855469 5.94652344 15.98960938 5.95554687 16.91796875 5.96484375 C17.60503906 5.97644531 18.29210937 5.98804687 19 6 C19.33 6.99 19.66 7.98 20 9 C11.37140412 11.22673442 3.84627317 10.26563264 -4 6 C-4.33 5.34 -4.66 4.68 -5 4 C-4.01 4 -3.02 4 -2 4 C-2 3.01 -2 2.02 -2 1 C-1.34 0.67 -0.68 0.34 0 0 Z " fill="#48302D" transform="translate(91,111)"/>
<path d="M0 0 C0.9765625 6.0546875 0.9765625 6.0546875 1 8 C0.34 8.66 -0.32 9.32 -1 10 C-1.66 9.01 -2.32 8.02 -3 7 C-3.66 7.66 -4.32 8.32 -5 9 C-5.33 7.35 -5.66 5.7 -6 4 C-7.32 4.33 -8.64 4.66 -10 5 C-10.33 3.35 -10.66 1.7 -11 0 C-7.01803543 -1.05404945 -4.01804691 -0.84098656 0 0 Z " fill="#306970" transform="translate(136,101)"/>
<path d="M0 0 C3.96 0 7.92 0 12 0 C13.32 2.97 14.64 5.94 16 9 C15.01 9.495 15.01 9.495 14 10 C14 9.34 14 8.68 14 8 C13.54625 8.495 13.0925 8.99 12.625 9.5 C11 11 11 11 9 11 C9 10.34 9 9.68 9 9 C7.02 9.66 5.04 10.32 3 11 C3 9.35 3 7.7 3 6 C5.66666667 6 8.33333333 6 11 6 C11.33 4.68 11.66 3.36 12 2 C8.04 1.67 4.08 1.34 0 1 C0 0.67 0 0.34 0 0 Z " fill="#AAAD91" transform="translate(95,76)"/>
<path d="M0 0 C2.125 0.375 2.125 0.375 4 1 C5.25 7.625 5.25 7.625 3 11 C-0.875 10.125 -0.875 10.125 -2 9 C-2.1875 5.5625 -2.1875 5.5625 -2 2 C-1.34 1.34 -0.68 0.68 0 0 Z " fill="#9FACAD" transform="translate(138,173)"/>
<path d="M0 0 C1.11375 0.185625 2.2275 0.37125 3.375 0.5625 C6.82568861 1.31680657 6.82568861 1.31680657 9 0 C9.04254356 1.99954746 9.04080783 4.00041636 9 6 C8 7 8 7 5.05859375 7.09765625 C3.26615234 7.08025391 3.26615234 7.08025391 1.4375 7.0625 C-0.35880859 7.04896484 -0.35880859 7.04896484 -2.19140625 7.03515625 C-3.11824219 7.02355469 -4.04507813 7.01195313 -5 7 C-5 6.67 -5 6.34 -5 6 C-2.36 5.67 0.28 5.34 3 5 C3 4.34 3 3.68 3 3 C0.36 3 -2.28 3 -5 3 C-5 2.67 -5 2.34 -5 2 C-3.35 2 -1.7 2 0 2 C0 1.34 0 0.68 0 0 Z " fill="#23616C" transform="translate(148,114)"/>
<path d="M0 0 C0.66 0.33 1.32 0.66 2 1 C2 1.66 2 2.32 2 3 C1.34 3 0.68 3 0 3 C0 3.66 0 4.32 0 5 C0.66 5.33 1.32 5.66 2 6 C1.505 6.598125 1.01 7.19625 0.5 7.8125 C-1.28276418 9.97029994 -1.28276418 9.97029994 -1 13 C-0.34 13.33 0.32 13.66 1 14 C-2.46214649 16.05164237 -3.59389235 16 -8 16 C-5.36 10.72 -2.72 5.44 0 0 Z " fill="#22262F" transform="translate(154,93)"/>
<path d="M0 0 C0.66 0.33 1.32 0.66 2 1 C-11.06930693 16.35643564 -11.06930693 16.35643564 -16 18 C-12.59573688 10.5272273 -6.25350037 5.10489826 0 0 Z " fill="#AEB9BA" transform="translate(66,50)"/>
<path d="M0 0 C2.109375 1.328125 2.109375 1.328125 4 4 C3.92798392 7.6853444 3.07963282 11.16922844 2.25 14.75 C2.04117188 15.73355469 1.83234375 16.71710938 1.6171875 17.73046875 C1.09850147 20.15886242 0.55890716 22.58060371 0 25 C-0.99 25 -1.98 25 -3 25 C-2.855625 24.2884375 -2.71125 23.576875 -2.5625 22.84375 C-2.01323449 20.06690769 -1.50084447 17.28594737 -1 14.5 C-0.50662084 11.75557844 -0.00548095 9.02508168 0.58984375 6.30078125 C1.02835267 3.84095504 0.78271759 2.34815276 0 0 Z " fill="#E1E2E2" transform="translate(163,95)"/>
<path d="M0 0 C0.33 0.66 0.66 1.32 1 2 C3.01669827 3.13350534 3.01669827 3.13350534 5 4 C4.030625 4.28875 3.06125 4.5775 2.0625 4.875 C-1.10664203 5.64214682 -1.10664203 5.64214682 -2 8 C-3.98 7.34 -5.96 6.68 -8 6 C-8 4.68 -8 3.36 -8 2 C-4.98968256 1.06576355 -4.13349732 0.95550089 -1 2 C-0.67 1.34 -0.34 0.68 0 0 Z " fill="#B19075" transform="translate(99,111)"/>
<path d="M0 0 C0.66 0 1.32 0 2 0 C2 0.99 2 1.98 2 3 C3.65 3 5.3 3 7 3 C7 3.33 7 3.66 7 4 C9.31 4 11.62 4 14 4 C14 4.66 14 5.32 14 6 C10.94736336 6.98120464 9.05263664 6.98120464 6 6 C6 6.99 6 7.98 6 9 C4.33388095 9.042721 2.66617115 9.04063832 1 9 C0 8 0 8 -0.09765625 6.15234375 C-0.06510417 4.1015625 -0.03255208 2.05078125 0 0 Z " fill="#6A6F6B" transform="translate(95,100)"/>
<path d="M0 0 C0.99 0.66 1.98 1.32 3 2 C3.29296875 5.0390625 3.29296875 5.0390625 3.1875 8.625 C3.16042969 9.81351563 3.13335937 11.00203125 3.10546875 12.2265625 C3.07066406 13.14179688 3.03585938 14.05703125 3 15 C3.66 15.33 4.32 15.66 5 16 C2.36 16 -0.28 16 -3 16 C-2.01 15.67 -1.02 15.34 0 15 C0 10.05 0 5.1 0 0 Z " fill="#50676A" transform="translate(163,144)"/>
<path d="M0 0 C4.22146546 -0.35178879 5.71423428 0.48091295 9 3 C9.99 2.67 10.98 2.34 12 2 C12 2.99 12 3.98 12 5 C9.54137599 5.05383848 7.0839245 5.09359038 4.625 5.125 C3.57699219 5.15013672 3.57699219 5.15013672 2.5078125 5.17578125 C0.67102514 5.19344267 -1.16601963 5.10303261 -3 5 C-3.66 4.34 -4.32 3.68 -5 3 C-3.35 2.67 -1.7 2.34 0 2 C0 1.34 0 0.68 0 0 Z " fill="#47464B" transform="translate(105,109)"/>
<path d="M0 0 C5.94 1.485 5.94 1.485 12 3 C12 3.33 12 3.66 12 4 C8.7 4 5.4 4 2 4 C2 4.66 2 5.32 2 6 C0.02 6 -1.96 6 -4 6 C-3.67 5.01 -3.34 4.02 -3 3 C-2.34 3 -1.68 3 -1 3 C-0.67 2.01 -0.34 1.02 0 0 Z " fill="#785848" transform="translate(118,116)"/>
<path d="M0 0 C0.99 0.66 1.98 1.32 3 2 C3 2.99 3 3.98 3 5 C1.5390625 6.3515625 1.5390625 6.3515625 -0.375 7.625 C-1.00148437 8.05039062 -1.62796875 8.47578125 -2.2734375 8.9140625 C-4 10 -4 10 -6 11 C-6 9.35 -6 7.7 -6 6 C-5.01 5.67 -4.02 5.34 -3 5 C-3.33 4.34 -3.66 3.68 -4 3 C-3 1 -3 1 0 0 Z " fill="#56433C" transform="translate(135,50)"/>
<path d="M0 0 C0 0.99 0 1.98 0 3 C0.66 3 1.32 3 2 3 C2.33 3.99 2.66 4.98 3 6 C-0.96 6 -4.92 6 -9 6 C-8.34 5.34 -7.68 4.68 -7 4 C-6.01 4 -5.02 4 -4 4 C-4 3.01 -4 2.02 -4 1 C-4.99 0.67 -5.98 0.34 -7 0 C-4.3333581 -1.33332095 -2.83319697 -0.67102033 0 0 Z " fill="#285A62" transform="translate(155,87)"/>
<path d="M0 0 C2.43298015 2.43298015 2.7227259 4.12676754 3.5625 7.4375 C4.30662861 10.33304709 5.05424888 13.16274665 6 16 C5.01 16.33 4.02 16.66 3 17 C0.70657253 11.10261508 -0.34548714 6.33393082 0 0 Z " fill="#687171" transform="translate(92,81)"/>
<path d="M0 0 C1.32 0 2.64 0 4 0 C4 4 4 4 3 7 C-0.0625 8.1875 -0.0625 8.1875 -3 9 C-2.44271087 5.65626525 -1.64826111 2.96687001 0 0 Z " fill="#62BEBB" transform="translate(138,97)"/>
<path d="M0 0 C0.66 0.99 1.32 1.98 2 3 C2.66 2.67 3.32 2.34 4 2 C2.8141763 5.37503669 1.72426311 7.64722731 -1 10 C-1 9.34 -1 8.68 -1 8 C-3.64 8 -6.28 8 -9 8 C-9 7.34 -9 6.68 -9 6 C-6.6739143 5.61936779 -4.33944736 5.28730055 -2 5 C-1.67 5.33 -1.34 5.66 -1 6 C-0.67 4.02 -0.34 2.04 0 0 Z " fill="#F0E9D9" transform="translate(138,70)"/>
<path d="M0 0 C0.99 0 1.98 0 3 0 C3.66 1.32 4.32 2.64 5 4 C7.16874252 3.49396008 8.99967627 3.00016187 11 2 C11 3.98 11 5.96 11 8 C10.401875 7.814375 9.80375 7.62875 9.1875 7.4375 C6.83591238 6.77906313 6.83591238 6.77906313 4 8 C0 2.25 0 2.25 0 0 Z " fill="#9F7B60" transform="translate(127,69)"/>
<path d="M0 0 C2 2 2 2 2 5 C2.66 5.33 3.32 5.66 4 6 C3.34 6 2.68 6 2 6 C0.515 12.435 0.515 12.435 -1 19 C-1.33 19 -1.66 19 -2 19 C-2.24794402 12.4294834 -1.32388229 6.43028541 0 0 Z " fill="#2D424B" transform="translate(136,78)"/>
<path d="M0 0 C1.3303125 0.37125 1.3303125 0.37125 2.6875 0.75 C0.15713112 4.54555331 -2.09324764 5.1955386 -6.3125 6.75 C-7.3025 6.75 -8.2925 6.75 -9.3125 6.75 C-7.71153457 1.94710371 -5.15430695 -0.3890043 0 0 Z " fill="#63B9B7" transform="translate(147.3125,76.25)"/>
<path d="M0 0 C1.98 0.66 3.96 1.32 6 2 C6 3.32 6 4.64 6 6 C4 8 4 8 1 9 C1.33 7.02 1.66 5.04 2 3 C1.01 2.67 0.02 2.34 -1 2 C-0.67 1.34 -0.34 0.68 0 0 Z " fill="#B78869" transform="translate(138,65)"/>
<path d="M0 0 C1.52519276 0.08937803 3.04681929 0.24537146 4.5625 0.4375 C5.80193359 0.59025391 5.80193359 0.59025391 7.06640625 0.74609375 C7.70449219 0.82988281 8.34257813 0.91367188 9 1 C9 1.66 9 2.32 9 3 C8.01 3 7.02 3 6 3 C6 3.99 6 4.98 6 6 C3.03 5.505 3.03 5.505 0 5 C0.33 4.01 0.66 3.02 1 2 C0.34 1.67 -0.32 1.34 -1 1 C-0.67 0.67 -0.34 0.34 0 0 Z " fill="#F5F2CE" transform="translate(112,114)"/>
<path d="M0 0 C0 0.66 0 1.32 0 2 C-4.96993194 4.43425238 -8.34605369 5.34615998 -14 5 C-13 3 -13 3 -10.8203125 2.1484375 C-9.93085937 1.89320312 -9.04140625 1.63796875 -8.125 1.375 C-7.24070312 1.11460938 -6.35640625 0.85421875 -5.4453125 0.5859375 C-3 0 -3 0 0 0 Z " fill="#FBF6EF" transform="translate(115,100)"/>
<path d="M0 0 C2.625 -0.1875 2.625 -0.1875 5 0 C4.34 0.66 3.68 1.32 3 2 C3.99 2 4.98 2 6 2 C6 2.66 6 3.32 6 4 C3.03 5.32 0.06 6.64 -3 8 C-2.45276317 4.62537285 -1.9451 2.91765 0 0 Z " fill="#5AB6B4" transform="translate(142,83)"/>
<path d="M0 0 C2.31 0.66 4.62 1.32 7 2 C7 1.34 7 0.68 7 0 C7.66 0 8.32 0 9 0 C8.125 4.75 8.125 4.75 7 7 C5.68 6.34 4.36 5.68 3 5 C3 4.01 3 3.02 3 2 C2.01 2 1.02 2 0 2 C-0.33 2.66 -0.66 3.32 -1 4 C-0.67 2.68 -0.34 1.36 0 0 Z " fill="#F3B982" transform="translate(127,67)"/>
<path d="M0 0 C3.96 0 7.92 0 12 0 C12.33 0.99 12.66 1.98 13 3 C8.545 3.495 8.545 3.495 4 4 C4 3.34 4 2.68 4 2 C2.68 2 1.36 2 0 2 C0 1.34 0 0.68 0 0 Z " fill="#694D3D" transform="translate(98,117)"/>
<path d="M0 0 C2.31 0 4.62 0 7 0 C7 0.66 7 1.32 7 2 C6.443125 2.185625 5.88625 2.37125 5.3125 2.5625 C1.93245808 4.66360714 0.14859619 7.70665994 -2 11 C-2.33 10.01 -2.66 9.02 -3 8 C-1.66666667 6.33333333 -0.33333333 4.66666667 1 3 C0.67 2.01 0.34 1.02 0 0 Z " fill="#63787B" transform="translate(98,135)"/>
<path d="M0 0 C2.97 0.33 5.94 0.66 9 1 C9 1.33 9 1.66 9 2 C6.69 2 4.38 2 2 2 C2.22816406 2.60328125 2.45632812 3.2065625 2.69140625 3.828125 C2.97886719 4.62734375 3.26632813 5.4265625 3.5625 6.25 C3.85253906 7.03890625 4.14257812 7.8278125 4.44140625 8.640625 C5.04522837 11.19103452 4.8473932 12.55322229 4 15 C3.49440092 13.56445975 2.9957251 12.1264798 2.5 10.6875 C2.2215625 9.88699219 1.943125 9.08648437 1.65625 8.26171875 C1 6 1 6 1 3 C0.34 3 -0.32 3 -1 3 C-0.67 2.01 -0.34 1.02 0 0 Z " fill="#F5F1AD" transform="translate(92,77)"/>
<path d="M0 0 C0.99 0.33 1.98 0.66 3 1 C2.34 1 1.68 1 1 1 C0.731875 1.5775 0.46375 2.155 0.1875 2.75 C-1.01719859 5.0325868 -2.40798115 6.9737942 -4 9 C-3.67 9.66 -3.34 10.32 -3 11 C-5.31 11 -7.62 11 -10 11 C-9.278125 10.29875 -8.55625 9.5975 -7.8125 8.875 C-5.00176187 6.07229255 -2.50483774 3.07737208 0 0 Z " fill="#526A6C" transform="translate(91,149)"/>
<path d="M0 0 C1.32 0 2.64 0 4 0 C4.33 1.65 4.66 3.3 5 5 C2.69 5 0.38 5 -2 5 C-1.125 1.125 -1.125 1.125 0 0 Z " fill="#F5F7F7" transform="translate(124,145)"/>
<path d="M0 0 C0.33 0.66 0.66 1.32 1 2 C1.99 2 2.98 2 4 2 C4.33 2.99 4.66 3.98 5 5 C3 7 3 7 0.375 7.125 C-0.40875 7.08375 -1.1925 7.0425 -2 7 C-2.33 6.01 -2.66 5.02 -3 4 C-2.01 3.67 -1.02 3.34 0 3 C0 2.01 0 1.02 0 0 Z " fill="#B68B67" transform="translate(128,61)"/>
<path d="M0 0 C0.99 0 1.98 0 3 0 C3 2.31 3 4.62 3 7 C2.01 7.495 2.01 7.495 1 8 C0.34 7.67 -0.32 7.34 -1 7 C-1.04254356 5.00045254 -1.04080783 2.99958364 -1 1 C-0.67 0.67 -0.34 0.34 0 0 Z " fill="#FCFDFD" transform="translate(138,175)"/>
<path d="M0 0 C1.76462683 3.08809695 2 4.23312136 2 8 C-0.97 8 -3.94 8 -7 8 C-7 7.67 -7 7.34 -7 7 C-5.35 6.67 -3.7 6.34 -2 6 C-2 4.68 -2 3.36 -2 2 C-1.34 2 -0.68 2 0 2 C0 1.34 0 0.68 0 0 Z " fill="#24555E" transform="translate(137,110)"/>
<path d="M0 0 C0.66 0.33 1.32 0.66 2 1 C1.67 1.66 1.34 2.32 1 3 C1.66 3.33 2.32 3.66 3 4 C2.34 5.32 1.68 6.64 1 8 C-0.32 7.67 -1.64 7.34 -3 7 C-2.25 2.25 -2.25 2.25 0 0 Z " fill="#8D6F5A" transform="translate(88,108)"/>
<path d="M0 0 C-0.33 1.32 -0.66 2.64 -1 4 C-3.97 3.67 -6.94 3.34 -10 3 C-6.8902731 -0.1097269 -4.26569367 -2.13284683 0 0 Z " fill="#65B8B6" transform="translate(126,107)"/>
<path d="M0 0 C1.65 0.33 3.3 0.66 5 1 C5 2.65 5 4.3 5 6 C3.02 6.33 1.04 6.66 -1 7 C-1.33 6.34 -1.66 5.68 -2 5 C-1.34 5 -0.68 5 0 5 C0 3.35 0 1.7 0 0 Z " fill="#90654D" transform="translate(119,101)"/>
<path d="M0 0 C1.32 0.66 2.64 1.32 4 2 C3 4 3 4 1.4375 4.6875 C-2.16467146 5.14931685 -5.41166932 4.5382496 -9 4 C-5.86501708 2.14223235 -3.62528568 1.79859524 0 2 C0 1.34 0 0.68 0 0 Z " fill="#452E2B" transform="translate(111,118)"/>
<path d="M0 0 C1.2065625 0.0309375 1.2065625 0.0309375 2.4375 0.0625 C2.4375 2.0425 2.4375 4.0225 2.4375 6.0625 C1.1175 6.0625 -0.2025 6.0625 -1.5625 6.0625 C-2.2225 4.4125 -2.8825 2.7625 -3.5625 1.0625 C-2.5625 0.0625 -2.5625 0.0625 0 0 Z " fill="#53B0AF" transform="translate(130.5625,106.9375)"/>
<path d="M0 0 C0.66 0.66 1.32 1.32 2 2 C0.35 4.31 -1.3 6.62 -3 9 C-3.66 8.01 -4.32 7.02 -5 6 C-3.63016497 2.83884224 -3.0109362 2.0072908 0 0 Z " fill="#458082" transform="translate(143,73)"/>
<path d="M0 0 C0.99 0.33 1.98 0.66 3 1 C3.33 1.99 3.66 2.98 4 4 C3.67 4.66 3.34 5.32 3 6 C-0.0625 6.625 -0.0625 6.625 -3 7 C-2.67 5.68 -2.34 4.36 -2 3 C-1.67 3.66 -1.34 4.32 -1 5 C-0.34 5 0.32 5 1 5 C0.67 3.35 0.34 1.7 0 0 Z " fill="#EBBB8A" transform="translate(116,100)"/>
<path d="M0 0 C1.32728846 2.65457692 1.69347955 5.0574037 2 8 C1.34 8.66 0.68 9.32 0 10 C-3 6.375 -3 6.375 -3 3 C-2.34 3 -1.68 3 -1 3 C-0.67 2.01 -0.34 1.02 0 0 Z " fill="#1E3741" transform="translate(135,101)"/>
<path d="M0 0 C0.66 0 1.32 0 2 0 C1.67 0.99 1.34 1.98 1 3 C-3.29 3 -7.58 3 -12 3 C-12 2.67 -12 2.34 -12 2 C-11.21753906 1.93941406 -10.43507812 1.87882812 -9.62890625 1.81640625 C-8.61699219 1.73261719 -7.60507813 1.64882812 -6.5625 1.5625 C-5.55316406 1.48128906 -4.54382813 1.40007812 -3.50390625 1.31640625 C-1.06359221 1.26788532 -1.06359221 1.26788532 0 0 Z " fill="#29535D" transform="translate(155,118)"/>
<path d="M0 0 C0.66 0 1.32 0 2 0 C2.33 2.31 2.66 4.62 3 7 C1.68 7.33 0.36 7.66 -1 8 C-0.67 5.36 -0.34 2.72 0 0 Z " fill="#D1DAC8" transform="translate(90,100)"/>
<path d="M0 0 C1.55136786 2.46393719 2.03039129 3.68089146 1.75 6.625 C1 9 1 9 -1 11 C-1.125 3.375 -1.125 3.375 0 0 Z " fill="#EFF1F0" transform="translate(163,86)"/>
<path d="M0 0 C5.625 -0.25 5.625 -0.25 9 2 C9 2.99 9 3.98 9 5 C8.01 5 7.02 5 6 5 C5.34 4.01 4.68 3.02 4 2 C1.94996045 0.80767387 1.94996045 0.80767387 0 0 Z " fill="#576E70" transform="translate(139,143)"/>
<path d="M0 0 C0.66 0 1.32 0 2 0 C1.34 2.64 0.68 5.28 0 8 C-0.99 7.67 -1.98 7.34 -3 7 C-2.01 4.69 -1.02 2.38 0 0 Z " fill="#24232B" transform="translate(161,97)"/>
<path d="M0 0 C0.93423645 3.01031744 1.04449911 3.86650268 0 7 C-0.99 7.33 -1.98 7.66 -3 8 C-3.36923077 3.44615385 -3.36923077 3.44615385 -1.5 1.1875 C-1.005 0.795625 -0.51 0.40375 0 0 Z " fill="#F8D399" transform="translate(128,57)"/>
<path d="M0 0 C3.96 0.99 3.96 0.99 8 2 C8 2.33 8 2.66 8 3 C4.7 3 1.4 3 -2 3 C-1.34 2.01 -0.68 1.02 0 0 Z " fill="#B58058" transform="translate(122,117)"/>
<path d="M0 0 C1.32 0 2.64 0 4 0 C4.33 0.66 4.66 1.32 5 2 C5.99 2.33 6.98 2.66 8 3 C8 3.66 8 4.32 8 5 C4.62537285 4.45276317 2.91765 3.9451 0 2 C0 1.34 0 0.68 0 0 Z " fill="#F4BF86" transform="translate(107,106)"/>
<path d="M0 0 C0.66 0.66 1.32 1.32 2 2 C1.01 4.31 0.02 6.62 -1 9 C-1.66 8.67 -2.32 8.34 -3 8 C-2.01 5.36 -1.02 2.72 0 0 Z " fill="#745142" transform="translate(163,98)"/>
<path d="M0 0 C-0.33 1.32 -0.66 2.64 -1 4 C-1.99 4 -2.98 4 -4 4 C-4 3.34 -4 2.68 -4 2 C-4.99 1.67 -5.98 1.34 -7 1 C-3.375 -1.125 -3.375 -1.125 0 0 Z " fill="#3B8C90" transform="translate(147,89)"/>
<path d="M0 0 C0.33 0 0.66 0 1 0 C1 1.65 1 3.3 1 5 C-0.98 5.99 -0.98 5.99 -3 7 C-3 3.4833494 -2.23600438 2.59376508 0 0 Z " fill="#2B767C" transform="translate(161,86)"/>
<path d="M0 0 C0.33 0.99 0.66 1.98 1 3 C1.99 3 2.98 3 4 3 C4.33 2.34 4.66 1.68 5 1 C5 2.32 5 3.64 5 5 C3.68 5.33 2.36 5.66 1 6 C0.34 4.35 -0.32 2.7 -1 1 C-0.67 0.67 -0.34 0.34 0 0 Z " fill="#1E272D" transform="translate(125,103)"/>
<path d="M0 0 C0.66 0 1.32 0 2 0 C2 0.99 2 1.98 2 3 C3.65 3 5.3 3 7 3 C6.67 3.66 6.34 4.32 6 5 C2.9375 5.625 2.9375 5.625 0 6 C0 4.02 0 2.04 0 0 Z " fill="#2D2F38" transform="translate(95,100)"/>
<path d="M0 0 C1.32 1.32 2.64 2.64 4 4 C0.06329512 5.31223496 -2.12488144 4.24296256 -6 3 C-6 2.67 -6 2.34 -6 2 C-4.02 2 -2.04 2 0 2 C0 1.34 0 0.68 0 0 Z " fill="#245158" transform="translate(150,80)"/>
<path d="M0 0 C1.65 1.65 3.3 3.3 5 5 C4.67 5.99 4.34 6.98 4 8 C2.35 6.02 0.7 4.04 -1 2 C-0.67 1.34 -0.34 0.68 0 0 Z " fill="#ECEEED" transform="translate(158,77)"/>
<path d="M0 0 C0.99 0.66 1.98 1.32 3 2 C2.01 3.485 2.01 3.485 1 5 C-1.97 4.505 -1.97 4.505 -5 4 C-2 2 -2 2 0 2 C0 1.34 0 0.68 0 0 Z " fill="#3E3334" transform="translate(105,109)"/>
<path d="M0 0 C2 2 2 2 2 5 C-2 5 -2 5 -5 4 C-4.34 3.34 -3.68 2.68 -3 2 C-2.01 2 -1.02 2 0 2 C0 1.34 0 0.68 0 0 Z " fill="#6D5246" transform="translate(115,100)"/>
<path d="M0 0 C0 1.98 0 3.96 0 6 C-2.97 5.505 -2.97 5.505 -6 5 C-6 4.34 -6 3.68 -6 3 C-1.5 0 -1.5 0 0 0 Z " fill="#865846" transform="translate(138,71)"/>
<path d="M0 0 C0.33 0 0.66 0 1 0 C1 3.3 1 6.6 1 10 C0.01 9.67 -0.98 9.34 -2 9 C-1.34 6.03 -0.68 3.06 0 0 Z " fill="#D8DADB" transform="translate(145,57)"/>
<path d="M0 0 C0.66 0.66 1.32 1.32 2 2 C0.71034824 3.37562854 -0.62689293 4.70766393 -2 6 C-2.66 6 -3.32 6 -4 6 C-4 4.35 -4 2.7 -4 1 C-2.125 0.375 -2.125 0.375 0 0 Z " fill="#79604E" transform="translate(133,55)"/>
</svg>
